<svg id="Lager_1" data-name="Lager 1" xmlns="http://www.w3.org/2000/svg" viewBox="0 0 242.35 115.06"><defs><style>.cls-1{fill:#fff;}</style></defs><title>Rityta 1</title><path class="cls-1" d="M233,.85a3.65,3.65,0,0,0-4.79.09l-19.4,17.28A3.7,3.7,0,0,0,207.58,21V39.57L217,46.42a3.62,3.62,0,0,0,4.59-.21L230.94,38l10-8a3.69,3.69,0,0,0,1.38-2.89V8.58ZM208.63,21.28a3.4,3.4,0,0,1,1.11-2.49l9.08-8.2V28.91l-10.19,9.2ZM221.32,45a3.36,3.36,0,0,1-2.2.84,3.33,3.33,0,0,1-2-.64l-8.21-6,10.43-9.43,10.37,7.81Zm8.74-8.49-10.19-7.67V10.46l10.19,7.67Zm.51-19.36L220.18,9.37l8.28-7.27A3.3,3.3,0,0,1,232.78,2L241,8.83Zm10.73,9.53a3.35,3.35,0,0,1-1.25,2.61l-8.94,7.18V18.12L241.3,9.94Z"/><path class="cls-1" d="M8,114.66l-.83-4.9H3.41l-.8,4.9H.46L3.9,95.81H6.74l3.43,18.85ZM5.32,98.53,3.71,108H6.9Z"/><path class="cls-1" d="M42.11,106.39v-1.72h4.21v10H45l-.38-1.75a2.91,2.91,0,0,1-2.89,2.18,3,3,0,0,1-2.62-1.3c-.61-.87-.92-2.45-.92-4.73v-7.45c0-2.36.35-4,1.07-4.85a3.53,3.53,0,0,1,2.88-1.32,3.82,3.82,0,0,1,2.77.94,5.4,5.4,0,0,1,1.16,3.37l-2,.48a5.33,5.33,0,0,0-.6-2.38,1.47,1.47,0,0,0-1.31-.66,1.54,1.54,0,0,0-1.38.85,6.57,6.57,0,0,0-.51,3.11v8.32a6.53,6.53,0,0,0,.49,3,1.55,1.55,0,0,0,1.41.83c1.36,0,2.06-1.21,2.09-3.63v-3.29Z"/><path class="cls-1" d="M77.94,106.13v6.81h4.67v1.72H75.8V95.81h6.73v1.73H77.94v6.86h4.19v1.73Z"/><path class="cls-1" d="M113.8,114.66h-2.09V95.81h2.23l4.37,13.79V95.81h2.09v18.85h-2.23L113.8,100.9Z"/><path class="cls-1" d="M152.32,112.49a1.6,1.6,0,0,0,1.44.82,1.56,1.56,0,0,0,1.41-.71,6.29,6.29,0,0,0,.63-2.71l1.88.25a6.67,6.67,0,0,1-1.22,3.83,4,4,0,0,1-5.7-.23c-.72-.88-1.07-2.49-1.07-4.84v-7.32c0-2.36.35-4,1.07-4.85a3.52,3.52,0,0,1,2.88-1.32,3.82,3.82,0,0,1,2.77.94,5.4,5.4,0,0,1,1.16,3.37l-2,.48a5.33,5.33,0,0,0-.6-2.38,1.47,1.47,0,0,0-1.31-.66,1.54,1.54,0,0,0-1.38.85,6.57,6.57,0,0,0-.51,3.11v8.34A6.22,6.22,0,0,0,152.32,112.49Z"/><path class="cls-1" d="M190.75,114.66h-2.09v-6.3l-3.54-12.55h2.09l2.49,9.72,2.47-9.72h2.09l-3.51,12.55Z"/><path class="cls-1" d="M2.08,46.78a2.22,2.22,0,0,0-1.5.51A1.62,1.62,0,0,0,0,48.52V82.4a1.47,1.47,0,0,0,.81,1.3,3.55,3.55,0,0,0,1.89.49,3.52,3.52,0,0,0,1.91-.49,1.45,1.45,0,0,0,.78-1.3V46.78Zm18.08,2.71A11.81,11.81,0,0,0,12,46.78H7.46v4.81h4.26a6,6,0,0,1,4.49,1.64,6.94,6.94,0,0,1,1.58,5v.61a7,7,0,0,1-1.58,5,5.9,5.9,0,0,1-4.49,1.66H7.46v4.3h4.26A12.16,12.16,0,0,0,20.05,67c2.1-1.82,3.14-4.68,3.14-8.57V58Q23.19,52.21,20.16,49.49Z"/><path class="cls-1" d="M53.13,51.64V46.81a11.55,11.55,0,0,0-7.3,2.73q-3.11,2.76-3.11,8.66V73.09q0,5.88,3.11,8.64a11.62,11.62,0,0,0,7.3,2.74V79.63q-5-.52-5-6.54V58.2C48.12,54.18,49.79,52,53.13,51.64Zm9.35-2.1a11.56,11.56,0,0,0-7.28-2.73v4.84a5.51,5.51,0,0,1,3.43,1.58,6.94,6.94,0,0,1,1.58,5V73.09a6.92,6.92,0,0,1-1.58,5,5.4,5.4,0,0,1-3.43,1.57v4.85a11.63,11.63,0,0,0,7.28-2.74c2.08-1.84,3.14-4.72,3.14-8.64V58.2C65.62,54.27,64.56,51.38,62.48,49.54Z"/><path class="cls-1" d="M107.39,49.49a11.78,11.78,0,0,0-8.13-2.71H94.69v4.81H99a6,6,0,0,1,4.49,1.64,6.94,6.94,0,0,1,1.58,5v.61a7,7,0,0,1-1.58,5A5.89,5.89,0,0,1,99,65.46H94.69v4.3H99A12.22,12.22,0,0,0,107.29,67q3.13-2.73,3.13-8.57V58Q110.42,52.21,107.39,49.49ZM89.32,46.78a2.24,2.24,0,0,0-1.51.51,1.59,1.59,0,0,0-.58,1.23V82.4A1.47,1.47,0,0,0,88,83.7a3.95,3.95,0,0,0,3.81,0,1.47,1.47,0,0,0,.78-1.3V46.78Z"/><path class="cls-1" d="M137.19,78.05a6.75,6.75,0,0,1-1.63-5V48.52a1.43,1.43,0,0,0-.79-1.31,4,4,0,0,0-1.91-.43,4.09,4.09,0,0,0-1.92.43,1.42,1.42,0,0,0-.78,1.31V73.09q0,5.88,3.19,8.64a11.9,11.9,0,0,0,7.42,2.74V79.63A5.66,5.66,0,0,1,137.19,78.05Zm15.48-30.84a4,4,0,0,0-1.91-.43,4,4,0,0,0-1.92.43,1.42,1.42,0,0,0-.79,1.31V73.09q0,6-5.21,6.54v4.84a12,12,0,0,0,7.43-2.74q3.19-2.76,3.19-8.64V48.52A1.43,1.43,0,0,0,152.67,47.21Z"/><path class="cls-1" d="M195.49,49.49a11.78,11.78,0,0,0-8.13-2.71H182.8v4.81h4.26a5.93,5.93,0,0,1,4.48,1.64,6.9,6.9,0,0,1,1.58,5v.61a7,7,0,0,1-1.58,5,5.86,5.86,0,0,1-4.48,1.66H182.8v4.3h4.26A12.19,12.19,0,0,0,195.39,67q3.13-2.73,3.14-8.57V58Q198.53,52.21,195.49,49.49Zm-19.57-2.2a1.56,1.56,0,0,0-.59,1.23V82.4a1.47,1.47,0,0,0,.81,1.3,3.6,3.6,0,0,0,1.89.49,3.55,3.55,0,0,0,1.91-.49,1.46,1.46,0,0,0,.79-1.3V46.78h-3.31A2.18,2.18,0,0,0,175.92,47.29Z"/></svg>